<?xml version="1.0" standalone="no"?>
<!DOCTYPE svg PUBLIC "-//W3C//DTD SVG 20010904//EN"
 "http://www.w3.org/TR/2001/REC-SVG-20010904/DTD/svg10.dtd">
<svg version="1.0" xmlns="http://www.w3.org/2000/svg"
 width="512.000000pt" height="512.000000pt" viewBox="0 0 512.000000 512.000000"
 preserveAspectRatio="xMidYMid meet">
<metadata>
Created by potrace 1.14, written by Peter Selinger 2001-2017
</metadata>
<g transform="translate(0.000000,512.000000) scale(0.100000,-0.100000)"
fill="#000000" stroke="none">
<path d="M405 4765 c-198 -43 -354 -199 -394 -393 -8 -37 -11 -575 -10 -1820
0 -1891 -2 -1806 49 -1916 21 -47 80 -129 114 -159 42 -36 122 -85 181 -108
l60 -24 752 -3 c822 -3 836 -2 949 55 102 52 191 145 242 253 43 92 42 43 39
1935 -2 1970 3 1798 -59 1925 -32 64 -151 180 -220 213 -118 56 -118 56 -913
56 -565 -1 -744 -4 -790 -14z m950 -1026 c235 -50 419 -174 553 -371 61 -90
117 -235 131 -343 3 -27 6 -412 6 -855 l0 -804 -150 -1 c-82 0 -159 1 -170 3
-20 3 -20 11 -19 342 l0 339 -510 -2 -511 -2 -1 -340 -1 -340 -154 0 c-85 0
-162 1 -171 3 -16 4 -17 57 -17 811 1 738 2 813 19 893 63 300 279 542 571
641 121 41 302 52 424 26z"/>
<path d="M1135 3409 c-205 -25 -380 -177 -436 -379 -9 -31 -13 -140 -15 -342
l-2 -298 513 0 512 0 -2 303 c-1 172 -7 315 -12 332 -25 71 -48 123 -75 163
-80 117 -222 205 -353 218 -27 3 -54 6 -60 8 -5 1 -37 -1 -70 -5z"/>
<path d="M3179 4776 c-2 -2 -20 -7 -41 -10 -48 -7 -131 -41 -171 -68 -96 -67
-158 -144 -203 -253 l-29 -70 0 -1815 0 -1815 29 -70 c38 -91 73 -142 140
-202 69 -61 145 -100 233 -118 96 -20 1498 -21 1583 -1 55 13 144 51 167 71 7
5 30 24 51 40 77 59 154 186 170 279 4 23 7 847 7 1831 l0 1790 -23 67 c-25
72 -85 165 -133 206 -17 14 -36 31 -43 37 -19 19 -80 51 -142 76 l-59 24 -766
2 c-421 2 -768 1 -770 -1z m1076 -1040 c159 -39 310 -143 401 -277 88 -130
123 -253 119 -414 -5 -174 -66 -316 -199 -458 l-26 -28 41 -42 c68 -69 132
-181 160 -277 7 -25 14 -52 17 -60 2 -8 4 -69 4 -135 1 -104 -2 -131 -25 -200
-77 -233 -254 -399 -493 -460 -62 -16 -127 -18 -626 -19 l-558 -1 0 1191 c0
655 2 1193 4 1195 3 2 253 3 558 3 483 -1 562 -4 623 -18z"/>
<path d="M3414 3073 l0 -343 361 0 c427 0 450 4 548 90 114 101 145 277 73
417 -40 76 -144 152 -232 169 -21 4 -199 8 -395 8 l-356 1 1 -342z"/>
<path d="M3415 2048 l0 -342 335 0 c184 -1 361 2 393 6 198 26 329 221 283
424 -9 44 -55 120 -93 155 -102 95 -123 99 -558 99 l-361 0 1 -342z"/>
</g>
</svg>
